# xmcd CD database file
#
# Track frame offsets:
#	150
#	21847
#	34575
#	48190
#	60910
#	76617
#	93642
#	110732
#	121507
#	138255
#	151747
#	165645
#	186770
#	203230
#
# Disc length: 2944 seconds
#
# Revision: 1
# Processed by: cddbd v1.4PL0 Copyright (c) Steve Scherf et al.
# Submitted via: CDex 1.40Beta8
#
DISCID=a20b7e0e
DTITLE=Jonny Hill - Träume, ...die hat jeder
DYEAR=1993
DGENRE=Country
TTITLE0=Ruf Teddybär Einz-Vier
TTITLE1=Kann Liebe alles verzeih´n
TTITLE2=Carolyn
TTITLE3=Mein bester Freund
TTITLE4=Lucille
TTITLE5=Rosen für Mana
TTITLE6=Weit, weit, weit ist es nach Lüdenscheid
TTITLE7=Adios Amigo
TTITLE8=Der letzte Drink
TTITLE9=Ruby, mach´s mir doch nicht so schwer
TTITLE10=Mutter Theresa
TTITLE11=Papillon
TTITLE12=Dann gehst Du alleine nach Hause
TTITLE13=Träume, ...die hat jeder
EXTD=YEAR: 1993 ID3G: 2
EXTT0=
EXTT1=
EXTT2=
EXTT3=
EXTT4=
EXTT5=
EXTT6=
EXTT7=
EXTT8=
EXTT9=
EXTT10=
EXTT11=
EXTT12=
EXTT13=
PLAYORDER=
